<svg xmlns="http://www.w3.org/2000/svg" xmlns:xlink="http://www.w3.org/1999/xlink" width="41" zoomAndPan="magnify" viewBox="0 0 31.5 62.249998" height="83" preserveAspectRatio="xMidYMid meet" version="1.0"><defs><clipPath id="e59505a9ee"><path d="M 2.648438 2.324219 L 27.75 2.324219 L 27.75 58.433594 L 2.648438 58.433594 Z M 2.648438 2.324219 " clip-rule="nonzero"/></clipPath></defs><g clip-path="url(#e59505a9ee)"><path fill="#dba171" d="M 3.058594 46.433594 L 14.53125 57.90625 C 14.941406 58.316406 15.585938 58.316406 15.996094 57.90625 L 27.46875 46.433594 C 27.878906 46.023438 27.878906 45.382812 27.46875 44.972656 C 27.058594 44.5625 26.414062 44.5625 26.003906 44.972656 L 16.277344 54.699219 L 16.277344 3.394531 C 16.277344 2.832031 15.816406 2.367188 15.25 2.367188 C 14.6875 2.367188 14.226562 2.832031 14.226562 3.394531 L 14.226562 54.699219 L 4.496094 44.996094 C 4.292969 44.792969 4.035156 44.691406 3.777344 44.691406 C 3.523438 44.691406 3.265625 44.792969 3.058594 44.996094 C 2.648438 45.382812 2.648438 46.023438 3.058594 46.433594 Z M 3.058594 46.433594 " fill-opacity="1" fill-rule="nonzero"/></g></svg>